<svg enable-background="new 0 0 48 48" height="48" viewBox="0 0 48 48" width="48" xmlns="http://www.w3.org/2000/svg"><g id="Layer_1"/><g id="Layer_2"/><g id="Layer_3"/><g id="Layer_4"/><g id="Layer_5"/><g id="Layer_6"/><g id="Layer_7"/><g id="Layer_8"/><g id="Layer_9"/><g id="Layer_10"/><g id="Layer_11"/><g id="Layer_12"/><g id="Layer_13"/><g id="Layer_14"/><g id="Layer_15"/><g id="Layer_16"/><g id="Layer_17"/><g id="Layer_18"/><g id="Layer_19"/><g id="Layer_20"/><g id="Layer_21"/><g id="Layer_22"/><g id="Layer_23"/><g id="Layer_24"/><g id="Layer_25"><g><path d="m47 25h-3c-.553 0-1-.447-1-1s.447-1 1-1h3c.553 0 1 .447 1 1s-.447 1-1 1z"/></g><g><path d="m47 9h-3c-.553 0-1-.447-1-1s.447-1 1-1h3c.553 0 1 .447 1 1s-.447 1-1 1z"/></g><g><path d="m47 17h-3c-.553 0-1-.447-1-1s.447-1 1-1h3c.553 0 1 .447 1 1s-.447 1-1 1z"/></g><g><path d="m47 33h-3c-.553 0-1-.447-1-1s.447-1 1-1h3c.553 0 1 .447 1 1s-.447 1-1 1z"/></g><g><path d="m47 41h-3c-.553 0-1-.447-1-1s.447-1 1-1h3c.553 0 1 .447 1 1s-.447 1-1 1z"/></g><path d="m31.286 11.3-4.186 4.271-1.386-1.414c-.387-.395-1.02-.401-1.414-.014-.395.386-.4 1.02-.014 1.414l2.1 2.143c.002.002.006.003.008.005s.003.006.006.008c.066.064.144.102.22.144.036.02.066.052.103.068.121.05.248.075.377.075s.256-.025.376-.074c.038-.015.068-.048.103-.068.076-.043.155-.08.22-.144.002-.002.003-.006.006-.008.002-.002.006-.003.008-.005l4.9-5c.387-.395.381-1.027-.014-1.414-.394-.389-1.027-.382-1.413.013z"/><path d="m31.707 30.293c-.391-.391-1.023-.391-1.414 0l-1.793 1.793-1.793-1.793c-.391-.391-1.023-.391-1.414 0s-.391 1.023 0 1.414l1.793 1.793-1.793 1.793c-.391.391-.391 1.023 0 1.414.195.195.451.293.707.293s.512-.098.707-.293l1.793-1.793 1.793 1.793c.195.195.451.293.707.293s.512-.098.707-.293c.391-.391.391-1.023 0-1.414l-1.793-1.793 1.793-1.793c.391-.391.391-1.023 0-1.414z"/><circle cx="8" cy="31" r="5"/><path d="m42.972 0h-33.944c-1.118 0-2.028.897-2.028 2v22.08c.328-.047.66-.08 1-.08 3.859 0 7 3.141 7 7 0 1-.214 1.949-.594 2.811l.176.14c2.172 1.723 3.418 4.292 3.418 7.049v5c0 .732-.212 1.409-.556 2h25.528c1.118 0 2.028-.897 2.028-2v-44c0-1.103-.91-2-2.028-2zm-5.972 39c0 1.103-.897 2-2 2h-13c-1.103 0-2-.897-2-2v-11c0-1.103.897-2 2-2h13c1.103 0 2 .897 2 2zm0-19c0 1.103-.897 2-2 2h-13c-1.103 0-2-.897-2-2v-11c0-1.103.897-2 2-2h13c1.103 0 2 .897 2 2z"/><path d="m13.339 35.517c-1.286 1.516-3.2 2.483-5.339 2.483s-4.053-.967-5.339-2.483c-1.618 1.283-2.661 3.262-2.661 5.483v5c0 1.103.897 2 2 2h12c1.103 0 2-.897 2-2v-5c0-2.221-1.043-4.2-2.661-5.483z"/></g><g id="Box"><path d="m0 0h48v48h-48z" fill="none"/></g></svg>