<svg id="Capa_1" enable-background="new 0 0 511.999 511.999" height="512" viewBox="0 0 511.999 511.999" width="512" xmlns="http://www.w3.org/2000/svg"><g><path d="m496.999 210.996h-15.505c-3.563-54.719-26.561-105.673-65.691-144.803-42.685-42.685-99.438-66.193-159.804-66.193s-117.119 23.508-159.802 66.193c-39.131 39.13-62.129 90.084-65.691 144.803h-15.506c-8.284 0-15 6.716-15 15v140.007c0 8.284 6.716 15 15 15h60.006c8.284 0 15-6.716 15-15v-140.007c0-8.284-6.716-15-15-15h-14.434c7.687-101.092 92.402-180.996 195.427-180.996s187.74 79.904 195.428 180.996h-14.434c-8.284 0-15 6.716-15 15v140.007c0 8.284 6.716 15 15 15h15.003v70.996h-123.577c-6.192-17.458-22.865-30-42.42-30h-60c-24.813 0-45 20.187-45 45s20.187 45 45 45h60c19.555 0 36.227-12.542 42.42-30h138.576c8.284 0 15-6.716 15-15v-85.996h15.003c8.284 0 15-6.716 15-15v-140.007c.001-8.284-6.715-15-14.999-15z"/><path d="m255.999 320.998c1.59 0 3.18-.253 4.709-.758l101.284-33.486v79.253c0 8.284 6.716 15 15 15s15-6.716 15-15v-100.011c0-6.47-4.148-12.211-10.292-14.242l-120.992-40.003c-3.059-1.011-6.359-1.011-9.418 0l-120.993 40.003c-6.143 2.031-10.291 7.772-10.291 14.242s4.148 12.211 10.291 14.242l120.993 40.002c1.53.505 3.12.758 4.709.758z"/><path d="m256 381.006c36.597 0 75.986-12.205 75.986-39 0-.001 0-.002 0-.004 0-.001 0-.002 0-.003v-13.729l-61.861 20.453c-4.569 1.51-9.32 2.274-14.126 2.274s-9.557-.765-14.121-2.273l-61.865-20.454v13.735c0 26.797 39.39 39.001 75.987 39.001z"/></g></svg>