<svg id="Layer_1" enable-background="new 0 0 64 64" height="64" viewBox="0 0 64 64" width="64" xmlns="http://www.w3.org/2000/svg"><g id="GRID"/><g id="Layer_2"/><g id="Layer_3"/><g id="Layer_4"/><g id="Layer_5"/><g id="Layer_6"/><g id="Layer_7"/><g id="Layer_8"/><g id="Layer_9"/><g id="Layer_10"/><g id="Layer_11"/><g id="Layer_12"/><g id="Layer_13"/><g id="Layer_14"/><g id="Layer_15"/><g id="Layer_16"><path d="m53 46c.553 0 1-.448 1-1v-4c0-3.232-1.932-6.016-4.695-7.277 1.031-.916 1.695-2.238 1.695-3.723 0-2.415-1.721-4.434-4-4.899v-11.347l6.273-1.792c.414-.118.707-.488.726-.918s-.24-.824-.644-.978l-21-8c-.23-.087-.482-.087-.713 0l-21 8c-.007.002-.011.007-.018.01-.027.011-.048.029-.074.042-.081.042-.156.09-.223.15-.029.026-.052.056-.078.086-.052.061-.097.126-.133.197-.019.037-.036.071-.05.11-.031.086-.048.176-.055.27.001.025-.011.045-.011.069v12c0 .552.447 1 1 1s1-.448 1-1v-10.674l5 1.428v11.347c-2.279.465-4 2.484-4 4.899 0 1.485.664 2.807 1.695 3.723-2.764 1.261-4.695 4.045-4.695 7.277 0 .552.447 1 1 1h3.695c-2.835 1.992-4.695 5.28-4.695 9 0 6.064 4.935 11 11 11h32c.553 0 1-.448 1-1v-4c0-.552-.447-1-1-1h-3v-10zm-1.083-6h-11.834c.478-2.834 2.949-5 5.917-5s5.439 2.166 5.917 5zm-29.942-13h6.051c-.635.838-1.026 1.87-1.026 3 0 1.485.664 2.807 1.695 3.723-1.566.715-2.865 1.914-3.695 3.413-.83-1.499-2.129-2.698-3.695-3.413 1.031-.916 1.695-2.238 1.695-3.723 0-1.13-.391-2.162-1.025-3zm20.72 6.723c-1.566.715-2.865 1.914-3.695 3.413-.83-1.499-2.129-2.698-3.695-3.413 1.031-.916 1.695-2.238 1.695-3.723 0-1.13-.391-2.162-1.025-3h6.051c-.635.838-1.026 1.87-1.026 3 0 1.485.664 2.807 1.695 3.723zm-7.695-3.723c0 1.654-1.346 3-3 3s-3-1.346-3-3 1.346-3 3-3 3 1.346 3 3zm-3 5c2.968 0 5.439 2.166 5.917 5h-11.834c.478-2.834 2.949-5 5.917-5zm17-5c0 1.654-1.346 3-3 3s-3-1.346-3-3 1.346-3 3-3 3 1.346 3 3zm-17-25.93 17.835 6.794-17.835 5.096-13.859-3.96h13.859c.553 0 1-.448 1-1s-.447-1-1-1h-15.566zm-17 25.93c0-1.654 1.346-3 3-3s3 1.346 3 3-1.346 3-3 3-3-1.346-3-3zm-2.917 10c.478-2.834 2.949-5 5.917-5s5.439 2.166 5.917 5h-2.917zm35.917 16h-27c-2.757 0-5-2.243-5-5s2.243-5 5-5h27z"/><path d="m20 48h25c.553 0 1 .448 1 1s-.447 1-1 1h-25c-.553 0-1-.448-1-1s.447-1 1-1zm25 4h-25c-.553 0-1 .448-1 1s.447 1 1 1h25c.553 0 1-.448 1-1s-.447-1-1-1z"/></g><g id="Layer_17"/><g id="Layer_18"/><g id="Layer_19"/><g id="Layer_20"/><g id="Layer_21"/><g id="Layer_22"/><g id="Layer_23"/><g id="Layer_24"/><g id="Layer_25"/><g id="Layer_26"/><g id="Layer_27"/><g id="Layer_28"/><g id="Layer_29"/><g id="Layer_30"/><g id="Layer_31"/><g id="Layer_32"/><g id="Layer_33"/><g id="Layer_34"/><g id="Layer_35"/><g id="Layer_36"/><g id="Layer_37"/><g id="Layer_38"/><g id="Layer_39"/><g id="Layer_40"/><g id="Layer_41"/><g id="Layer_42"/><g id="Layer_43"/><g id="Layer_44"/><g id="Layer_45"/><g id="Layer_46"/><g id="Layer_47"/><g id="Layer_48"/><g id="Layer_49"/><g id="Layer_50"/><g id="Layer_51"/></svg>