<svg id="Capa_1" enable-background="new 0 0 512 512" height="512" viewBox="0 0 512 512" width="512" xmlns="http://www.w3.org/2000/svg"><g><path d="m502.941 277.472c-12.095-12.095-31.724-12.076-43.843.043l-96.331 96.331c-3.262 7.855-7.586 14.49-13.513 20.417-11.621 11.621-27.658 18.828-45.334 18.845l-58.557.056c-8.622.009-15.604-6.973-15.595-15.594.008-8.621 7.004-15.617 15.625-15.625l58.556-.057c18.14-.018 32.912-14.792 32.93-32.93.005-5.116-4.144-9.265-9.26-9.26l-125.94.11c-24.782.024-48.559 9.892-66.099 27.433l-135.58 144.732h125.528l39.738-39.738 159.48-1.306c18.437-.151 36.088-7.551 49.138-20.601l129.014-129.014c12.119-12.118 12.138-31.747.043-43.842z"/><g><path d="m393.307 66.079h-71.344v-51.052c0-8.284-6.716-15-15-15h-101.926c-8.284 0-15 6.716-15 15v51.052h-71.344c-8.284 0-15 6.716-15 15v22.943c0 3.698 1.366 7.266 3.836 10.018l47.888 53.364c2.845 3.171 6.904 4.982 11.164 4.982h74.419v-1.544c0-8.284 6.716-15 15-15s15 6.716 15 15v1.544h74.237c4.25 0 8.301-1.803 11.146-4.961l48.069-53.364c2.482-2.755 3.855-6.331 3.855-10.039v-22.943c0-8.285-6.716-15-15-15zm-173.27-36.052h71.926v36.052h-71.926z"/><path d="m345.237 202.386h-74.237v1.544c0 8.284-6.716 15-15 15s-15-6.716-15-15v-1.544h-74.419c-12.762 0-24.97-5.448-33.493-14.947l-29.395-32.756v105.939c0 8.284 6.716 15 15 15h274.613c8.284 0 15-6.716 15-15v-106.017l-29.634 32.898c-8.518 9.458-20.705 14.883-33.435 14.883z"/></g></g></svg>