<svg id="Layer_1" viewBox="0 0 512 512" xmlns="http://www.w3.org/2000/svg" data-name="Layer 1"><path d="m342.87 348.59 11.88-9.5 60.32-47.48c25.17-21.32 54.28-15.59 69 2.89 0 0-50.54 47.03-151.62 141.11l-174.33-.85-61.88-69.96c40.59-39.23 76.93-59.16 107.55-58.39 33.79.82 42.97 26.31 55.36 27.07l52.7-.4c15.53-.03 23.84 19.16 12.47 30.44-3.23 3.23-7.71 5.22-12.61 5.19l-89.35-.37c-3.71 0-6.72 2.98-6.72 6.66-.03 3.69 2.95 6.69 6.63 6.72l89.38.37c18.09.06 32.57-15.51 31.24-33.51zm-92.83-78.24c6.75 1.19 13.72 1.81 20.86 1.81s14.09-.62 20.86-1.81c-.77-3.29-1.56-6.41-2.41-9.38-5.53-19.5-12.1-31.58-18.45-31.58s-12.95 12.08-18.48 31.58c-.85 2.98-1.64 6.09-2.38 9.38zm-18.94-217.59v42.01h91.98v-42.01l31.01-10.54-77.02-26.22-76.99 26.22 31.01 10.54zm28.6 108.14h34.78c29.25 0 53.18 23.92 53.18 53.18v26.19c-17.94-12.78-39.23-21.2-62.28-23.7l-.31-.03c-.37-.06-.77-.09-1.13-.11-.28-.03-.57-.06-.85-.08l-.65-.06c-.34-.03-.68-.06-1.02-.09l-.68-.06c-.4-.03-.79-.06-1.19-.08l-.4-.03c-.43-.03-.85-.06-1.28-.06l-.34-.03c-.48-.03-.99-.06-1.47-.06l-.06-.03h-.03c-.54 0-1.05-.03-1.59-.03h-.2c-.48-.03-.99-.03-1.5-.03l-.17-.03h-3.26l-.17.03c-.51 0-.99 0-1.5.03h-.2c-.51 0-1.05.03-1.59.03l-.06.03c-.51 0-.99.03-1.5.06l-.34.03c-.43 0-.85.03-1.25.06l-.4.03c-.43.03-.82.06-1.22.08l-.68.06c-.34.03-.68.06-1.02.09l-.65.06c-.28.03-.57.06-.85.08-.37.03-.77.06-1.13.11l-.31.03c-17.94 1.96-34.81 7.48-49.86 15.85v-18.34c0-29.25 23.92-53.18 53.18-53.18zm54.08-52.55c.99 3.4 1.53 7.03 1.53 10.74 0 21.2-17.12 38.41-38.24 38.41s-38.21-17.21-38.21-38.41c0-3.71.54-7.34 1.5-10.74zm-111.03 142.41c8.65 6.04 18.14 10.97 28.26 14.57 1.9.68 3.85 1.3 5.81 1.9.79-3.46 1.64-6.77 2.52-9.92 2.98-10.49 6.58-19.3 10.69-26.11-13.69 2.41-26.56 7.14-38.18 13.8l-.06.03c-.37.2-.77.43-1.13.65l-.17.08c-.34.23-.68.43-1.02.62l-.23.14c-.31.2-.65.4-.96.6l-.28.17c-.28.2-.6.37-.91.57l-.28.2c-.31.17-.6.37-.91.57l-.28.2c-.28.17-.6.37-.88.57l-.34.23c-.28.2-.54.37-.82.57l-.37.26-.45.31zm177.53 50.94c-6.01-14.23-14.74-27.01-25.51-37.76-1.53-1.53-3.09-3-4.71-4.42-10.52 7.82-22.2 14.14-34.78 18.62-2.52.88-5.05 1.7-7.62 2.44 1.45 8.31 2.64 17.23 3.54 26.65 19.08 1.79 36.2 4.82 50.17 8.73l.57.17zm-41.27-50.94c-.14-.09-.28-.2-.43-.31l-.4-.26c-.28-.2-.54-.37-.82-.57l-.34-.23c-.28-.2-.57-.4-.88-.57l-.28-.2c-.28-.2-.6-.4-.91-.57l-.28-.2c-.31-.2-.6-.37-.91-.57l-.28-.17c-.31-.2-.62-.4-.96-.6l-.23-.14c-.34-.2-.68-.4-1.02-.62l-.14-.08c-.4-.23-.77-.45-1.16-.65l-.03-.03c-11.65-6.66-24.52-11.4-38.21-13.8 4.14 6.8 7.74 15.62 10.69 26.11.91 3.15 1.76 6.46 2.55 9.92 1.96-.6 3.88-1.22 5.78-1.9 10.15-3.6 19.64-8.53 28.26-14.57zm-147.32 8.76c-1.59 1.42-3.17 2.89-4.71 4.42-10.8 10.77-19.53 23.58-25.54 37.84 13.89-5.84 28.26-9.33 42.66-8.99 9.92.26 18.94 2.27 27.35 6.09.74-6.38 1.62-12.5 2.66-18.31-2.58-.74-5.13-1.56-7.62-2.44-12.59-4.48-24.29-10.8-34.81-18.62zm52.61 46.66c8.59-.54 17.49-.79 26.59-.79s17.97.26 26.56.79c-.79-7.94-1.81-15.45-3.03-22.51-7.65 1.36-15.51 2.07-23.53 2.07s-15.9-.71-23.53-2.07c-1.22 7.06-2.24 14.57-3.06 22.51zm-216.36 72.29 103.97 117.52 35.06-31.01-104-117.52-35.04 31.01z" fill-rule="evenodd"/></svg>