<svg height="512" viewBox="0 0 48 56" width="512" xmlns="http://www.w3.org/2000/svg"><g id="058---Customer-Service-Training" transform="translate(0 -1)"><path id="Shape" d="m12.69 31c.224-3.806-.382-3.775-.65-6.9-.094-1.1.133-.673-.4-1.1h-1.64c-.55228475 0-1 .4477153-1 1v10c0 2.209139 1.790861 4 4 4h3c-.6166452-.7049382-1.2744614-1.3727719-1.97-2h-1.03c-1.1032019-.0032948-1.9967052-.8967981-2-2v-3z"/><path id="Rectangle-path" d="m22 35h4v2h-4z"/><path id="Shape" d="m36.36 23c-.468.364-.3.05-.37.92-.358 3.73-.906 3.249-.68 7.08h2.69c.5522847 0 1-.4477153 1-1v-6c0-.5522847-.4477153-1-1-1z"/><path id="Shape" d="m33.93 24.35c-5.417 2.232-14.585 2.192-19.84 0 .3321193 1.612895.5526422 3.2467691.66 4.89-.042 2.9-.5 4.675 1.42 6.76h3.83v-1c.0032948-1.1032019.8967981-1.9967052 2-2h4c1.1032019.0032948 1.9967052.8967981 2 2v2c-.0032948 1.1032019-.8967981 1.9967052-2 2h-4c-.7137984-.0007321-1.373101-.3818319-1.73-1h-2.13c.4915522.5959559.9521594 1.2167743 1.38 1.86 1.729 2.5 1.644 2.14 6.06 2.14 2.443 0 2.486-2.573 5.64-5.41 2.083-1.87 2.189-3.418 2.07-5.98-.168-3.61.236-3.21.64-6.26z"/><path id="Shape" d="m25.58 44c-4.53 0-5.357.416-7.7-3.01-.27-.38-.56-.79-.88-1.21v4.07c1.646 4.28 12.474 4.176 14 0v-4.07c-1.709 2.244-2.463 4.22-5.42 4.22z"/><path id="Shape" d="m24 1c-.337 0 .738-.461-16.99 7.98l8.92 4.27 4.43-3c-1.151-1.902.56-4.25 3.64-4.25 2.24 0 4 1.32 4 3 0 2.365-3.381 3.747-6.03 2.58l-3.95 2.67 5.54 2.65c.2788203.1304936.6011797.1304936.88 0 17.4-8.18 16.55-7.82 16.55-7.92-17.712-8.433-16.652-7.98-16.99-7.98z"/><path id="Shape" d="m0 55v1c0 .5522847.44771525 1 1 1h46c.5522847 0 1-.4477153 1-1v-1c0-5.09-2.63-6.01-2.74-6.04l-12.71-3.76c-.79 1.4-2.96 3.8-8.55 3.8s-7.76-2.4-8.55-3.8l-12.72 3.76c-.1.03-2.73.95-2.73 6.04z"/><path id="Shape" d="m22.46 9.6c1.351.849 3.54.2 3.54-.6 0-.41-.78-1-2-1s-2 .59-2 1c.0462605.24388535.2007648.45356974.42.57.0150488.00748097.0286046.01764781.04.03z"/><path id="Shape" d="m35 14.09c-10.671 5.082-10.062 4.91-11 4.91-.923 0-.835-.068-7-3.01v4.01c0 .5522847-.4477153 1-1 1s-1-.4477153-1-1v-4.96l-2-.95v7.43c4.7 3.324 17.335 3.311 22 0z"/></g></svg>