<svg height="512" viewBox="0 0 32 32" width="512" xmlns="http://www.w3.org/2000/svg"><g id="laptop_book"><path d="m23 1h-3c-.744 0-1.771.311-2.387.723l-1.613 1.075-1.612-1.075c-.617-.412-1.644-.723-2.388-.723h-3c-.553 0-1 .448-1 1v10c0 .552.447 1 1 1h3c.353 0 .984.191 1.277.387l2.168 1.445c.168.112.362.168.555.168s.387-.056.555-.168l2.169-1.446c.292-.195.923-.386 1.276-.386h3c.553 0 1-.448 1-1v-10c0-.552-.447-1-1-1zm-6 9c0 .552-.447 1-1 1s-1-.448-1-1v-3c0-.552.447-1 1-1s1 .448 1 1zm14 17v1c0 1.654-1.346 3-3 3h-24c-1.654 0-3-1.346-3-3v-1c0-.552.447-1 1-1h10c0 1.103.896 2 2 2h4c1.104 0 2-.897 2-2h10c.553 0 1 .448 1 1zm-5-18v3c0 1.65-1.35 3-3 3h-3c0 .01-.17.06-.23.09l-2.11 1.41c-.49.33-1.07.5-1.66.5s-1.17-.17-1.66-.5l-2.17-1.45c-.02 0-.17-.04-.24-.05h-2.93c-1.65 0-3-1.35-3-3v-3c-1.65 0-3 1.35-3 3v12h26v-12c0-1.65-1.35-3-3-3zm-18 8h1c.55 0 1 .45 1 1s-.45 1-1 1h-1c-.55 0-1-.45-1-1s.45-1 1-1zm8 5h-8c-.55 0-1-.45-1-1s.45-1 1-1h8c.55 0 1 .45 1 1s-.45 1-1 1z"/></g></svg>