<svg id="Layer_1" enable-background="new 0 0 48 48" viewBox="0 0 48 48" xmlns="http://www.w3.org/2000/svg"><path d="m13 23c0-.5522461.4477539-1 1-1h2v-1c0-.5522461.4477539-1 1-1s1 .4477539 1 1v1h16c.5522461 0 1 .4477539 1 1s-.4477539 1-1 1h-16v1c0 .5522461-.4477539 1-1 1s-1-.4477539-1-1v-1h-2c-.5522461 0-1-.4477539-1-1zm33 17v2c0 .5522461-.4477539 1-1 1h-14-14-14c-.5522461 0-1-.4477539-1-1v-2c0-2.612854 2.0220337-4.7399292 4.5795288-4.9575195-.3597412-.6000367-.5795288-1.2934571-.5795288-2.0424805v-2c0-2.2055664 1.7944336-4 4-4s4 1.7944336 4 4v2c0 .7490234-.2197876 1.4424438-.5795288 2.0424805 1.4655762.1246948 2.7473144.8707275 3.5795288 1.9884643.8322144-1.1177368 2.1139526-1.8637695 3.5795288-1.9884644-.3597412-.6000366-.5795288-1.293457-.5795288-2.0424804v-2c0-2.2055664 1.7944336-4 4-4s4 1.7944336 4 4v2c0 .7490234-.2197876 1.4424438-.5795288 2.0424805 1.4655762.1246948 2.7473144.8707275 3.5795288 1.9884643.8322144-1.1177368 2.1139526-1.8637695 3.5795288-1.9884644-.3597412-.6000366-.5795288-1.293457-.5795288-2.0424804v-2c0-2.2055664 1.7944336-4 4-4s4 1.7944336 4 4v2c0 .7490234-.2197876 1.4424438-.5795288 2.0424805 2.5574951.2175903 4.5795288 2.3446655 4.5795288 4.9575195zm-10-7c0 1.1030273.8969727 2 2 2s2-.8969727 2-2v-2c0-1.1030273-.8969727-2-2-2s-2 .8969727-2 2zm-28 0c0 1.1030273.8969727 2 2 2s2-.8969727 2-2v-2c0-1.1030273-.8969727-2-2-2s-2 .8969727-2 2zm-4 8h12v-1c0-1.6542969-1.3457031-3-3-3h-6c-1.6542969 0-3 1.3457031-3 3zm14 0h12v-1c0-1.6542969-1.3457031-3-3-3h-6c-1.6542969 0-3 1.3457031-3 3zm26-1c0-1.6542969-1.3457031-3-3-3h-6c-1.6542969 0-3 1.3457031-3 3v1h12zm-21-29.2338867v2.4677734l2.0561523-1.2338867zm-10 7.2338867v-12c0-.5522461.4477539-1 1-1h20c.5522461 0 1 .4477539 1 1v12c0 .5522461-.4477539 1-1 1h-20c-.5522461 0-1-.4477539-1-1zm8-3c0 .3603516.1938477.6928711.5073242.8701172.1528321.0869141.3227539.1298828.4926758.1298828.1782227 0 .3564453-.0473633.5146484-.1425781l5-3c.3012696-.1806641.4853516-.5063477.4853516-.8574219s-.184082-.6767578-.4853516-.8574219l-5-3c-.309082-.1860352-.6943359-.190918-1.0073242-.0126953-.3134765.1772461-.5073242.5097656-.5073242.8701172z"/></svg>