<svg id="Capa_1" enable-background="new 0 0 512 512" height="512" viewBox="0 0 512 512" width="512" xmlns="http://www.w3.org/2000/svg"><g><path d="m28.66 420.387-28.66 45.806 28.66 45.807h180.87l28.659-45.807-28.659-45.806z"/><path d="m302.471 420.387-28.66 45.806 28.66 45.807h180.869l28.66-45.807-28.66-45.806z"/><path d="m28.66 289.362-28.66 45.806 28.66 45.806h180.869l28.66-45.806-28.659-45.806z"/><path d="m302.471 289.362-28.66 45.806 28.66 45.806h180.869l28.66-45.806-28.66-45.806z"/><path d="m0 0v249.942h512v-249.942zm256 203.092c-8.409 0-14.636-6.873-15-15-.363-8.101 7.154-15 15-15 8.409 0 14.636 6.873 15 15 .363 8.1-7.154 15-15 15zm15-72.221v18.135h-30v-45.354h15c6.514 0 11.812-5.299 11.812-11.812s-5.298-11.813-11.812-11.813-11.813 5.299-11.813 11.812h-30c0-23.056 18.757-41.812 41.813-41.812s41.812 18.757 41.812 41.812c0 17.772-11.145 32.99-26.812 39.032z"/></g></svg>