<?xml version="1.0" encoding="UTF-8"?>
<svg xmlns="http://www.w3.org/2000/svg" id="Glyph" viewBox="0 0 64 64" width="512" height="512"><path d="M59.71,8.29l-4-4A1.03276,1.03276,0,0,0,55,4H9a1.03276,1.03276,0,0,0-.71.29l-4,4A1.03276,1.03276,0,0,0,4,9V33a1.03273,1.03273,0,0,0,.29.71l4,4A1.03255,1.03255,0,0,0,9,38H55a1.03255,1.03255,0,0,0,.71-.29l4-4A1.03273,1.03273,0,0,0,60,33V9A1.03276,1.03276,0,0,0,59.71,8.29ZM20,28H12a1.00011,1.00011,0,0,1,0-2h8A1.00011,1.00011,0,0,1,20,28Zm-8-7a1.0002,1.0002,0,0,1,2,.00006A1.0002,1.0002,0,0,1,12,21Zm6,0a1.0002,1.0002,0,0,1,2,.00006A1.0002,1.0002,0,0,1,18,21Zm2-5H12a1.00011,1.00011,0,0,1,0-2h8A1.00011,1.00011,0,0,1,20,16ZM32,31a1.0002,1.0002,0,0,1,.00006-2A1.0002,1.0002,0,0,1,32,31Zm1.93-9.32A1.45933,1.45933,0,0,0,33,23.07V26a1.00012,1.00012,0,0,1-2-.00005V23.07a3.43008,3.43008,0,0,1,2.28-3.28c5.81074-2.40045,1.30446-10.55969-3.82007-6.88A3.99215,3.99215,0,0,0,28,16a1.00011,1.00011,0,0,1-2,0,6.03576,6.03576,0,0,1,7.19006-5.87988C39.15018,11.288,39.67926,19.77659,33.93,21.68ZM52,28H44a1.00011,1.00011,0,0,1,.00005-2H52A1.00011,1.00011,0,0,1,52,28Zm-8-7a1.0002,1.0002,0,0,1,2,.00006A1.0002,1.0002,0,0,1,44,21Zm6,0a1.0002,1.0002,0,0,1,2,.00006A1.0002,1.0002,0,0,1,50,21Zm2-5H44a1.00011,1.00011,0,0,1,.00005-2H52A1.00011,1.00011,0,0,1,52,16Z"/><path d="M29,41H9a.9843.9843,0,0,0-.6.2l-4,3a1.0078,1.0078,0,0,0,0,1.6l4,3A.9843.9843,0,0,0,9,49H29a1.003,1.003,0,0,0,1-1V42A1.003,1.003,0,0,0,29,41Z"/><path d="M55.6,41.2A.9843.9843,0,0,0,55,41H35a1.003,1.003,0,0,0-1,1v6a1.003,1.003,0,0,0,1,1H55a.9843.9843,0,0,0,.6-.2l4-3a1,1,0,0,0,0-1.6Z"/><path d="M55.6,52.2A.9843.9843,0,0,0,55,52H35a1.003,1.003,0,0,0-1,1v6a1.003,1.003,0,0,0,1,1H55a.9843.9843,0,0,0,.6-.2l4-3a1,1,0,0,0,0-1.6Z"/><path d="M29,52H9a.9843.9843,0,0,0-.6.2l-4,3a1.0078,1.0078,0,0,0,0,1.6l4,3A.9843.9843,0,0,0,9,60H29a1.003,1.003,0,0,0,1-1V53A1.003,1.003,0,0,0,29,52Z"/></svg>
