<?xml version="1.0" encoding="UTF-8"?>
<svg xmlns="http://www.w3.org/2000/svg" version="1.1" viewBox="0 0 973 185.5">
  <defs>
    <style>
      .cls-1 {
        fill: #fff;
      }

      .cls-2 {
        fill: #282828;
      }

      .cls-3 {
        fill: #cc2e25;
      }
    </style>
  </defs>
  <!-- Generator: Adobe Illustrator 28.7.1, SVG Export Plug-In . SVG Version: 1.2.0 Build 142)  -->
  <g>
    <g id="Layer_1">
      <g>
        <g>
          <path class="cls-3" d="M123.02,61.88c-1.51-5.39-5.97-9.22-11.52-9.91-.08-.01-.18,0-.22-.1H27.75c-.73.16-1.47.27-2.17.48-5.63,1.74-8.93,5.53-9.95,11.32-.02.11.03.25-.12.32v83.74c.23.51.22,1.08.35,1.61,1.34,5.53,5.78,9.57,11.46,10.4.11.02.25-.03.32.11h83.64c.73-.16,1.47-.27,2.17-.48,5.63-1.74,8.93-5.53,9.95-11.32.02-.11-.03-.25.12-.32v-83.64c-.16-.74-.29-1.49-.5-2.22ZM29.85,100.72c0-.44.11-.54.55-.54,11.69.01,23.38,0,35.07.01,3.18,0,5.84,2.58,5.85,5.64.01,3.19-2.52,5.72-5.77,5.73-5.61.01-11.21,0-16.82,0h-.69c-5.87,0-11.74,0-17.61.01-.46,0-.58-.1-.58-.57.02-3.43.02-6.85,0-10.28ZM29.85,119.73c0-.47.1-.61.59-.61,11.67.01,23.34.02,35.02,0,6.12,0,11.31-3.93,12.95-9.74,1.44-5.11-.48-10.58-4.92-13.98-2.42-1.86-5.15-2.79-8.21-2.79-11.6.01-23.2,0-34.8.02-.51,0-.63-.12-.63-.63.03-3.41.02-6.82,0-10.23,0-.32,0-.5.43-.5,12.02.02,24.05-.03,36.07.04,4.9.03,9.31,1.75,13.25,4.63,5.15,3.76,8.69,8.69,10.04,14.96,1.66,7.67-.13,14.61-5.1,20.66-3.98,4.83-9.16,7.66-15.33,8.66-1.23.2-2.48.26-3.73.25-5.59,0-11.18,0-16.77,0-6.1,0-12.2,0-18.3.01-.47,0-.57-.12-.57-.58.02-3.39.02-6.79,0-10.18ZM108.99,109.75c-.82,9.01-4.1,17.01-9.92,23.92-6.51,7.73-14.74,12.65-24.62,14.81-3.07.67-6.18.93-9.31.93-5.24,0-10.48,0-15.71,0-6.33,0-12.66,0-18.98.01-.49,0-.6-.14-.6-.61.02-3.39.02-6.79,0-10.18,0-.47.1-.61.59-.61,11.83.01,23.66.08,35.49-.01,8.95-.07,16.56-3.49,22.83-9.84,4.6-4.67,7.46-10.29,8.58-16.75,1.45-8.4-.34-16.13-5.16-23.12-4.76-6.9-11.18-11.55-19.34-13.7-2.49-.66-5.03-.91-7.61-.91-11.58.01-23.17,0-34.75.02-.51,0-.63-.11-.63-.63.03-3.43.02-6.85,0-10.28,0-.35.07-.48.45-.48,11.88.01,23.76-.05,35.65.03,9.1.06,17.29,3.04,24.59,8.39,8.16,5.99,13.88,13.78,16.88,23.49,1.56,5.06,2.05,10.24,1.57,15.51Z"/>
          <path class="cls-1" d="M71.31,105.83c.01,3.19-2.52,5.72-5.77,5.73-5.61.01-11.21,0-16.82,0h-.69c-5.87,0-11.74,0-17.61.01-.46,0-.58-.1-.58-.57.02-3.43.02-6.85,0-10.28,0-.44.11-.54.55-.54,11.69.01,23.38,0,35.07.01,3.18,0,5.84,2.58,5.85,5.64Z"/>
          <path class="cls-1" d="M84.55,121.56c-3.98,4.83-9.16,7.66-15.33,8.66-1.23.2-2.48.26-3.73.25-5.59,0-11.18,0-16.77,0-6.1,0-12.2,0-18.3.01-.47,0-.57-.12-.57-.58.02-3.39.02-6.79,0-10.18,0-.47.1-.61.59-.61,11.67.01,23.34.02,35.02,0,6.12,0,11.31-3.93,12.95-9.74,1.44-5.11-.48-10.58-4.92-13.98-2.42-1.86-5.15-2.79-8.21-2.79-11.6.01-23.2,0-34.8.02-.51,0-.63-.12-.63-.63.03-3.41.02-6.82,0-10.23,0-.32,0-.5.43-.5,12.02.02,24.05-.03,36.07.04,4.9.03,9.31,1.75,13.25,4.63,5.15,3.76,8.69,8.69,10.04,14.96,1.66,7.67-.13,14.61-5.1,20.66Z"/>
          <path class="cls-1" d="M108.99,109.75c-.82,9.01-4.1,17.01-9.92,23.92-6.51,7.73-14.74,12.65-24.62,14.81-3.07.67-6.18.93-9.31.93-5.24,0-10.48,0-15.71,0-6.33,0-12.66,0-18.98.01-.49,0-.6-.14-.6-.61.02-3.39.02-6.79,0-10.18,0-.47.1-.61.59-.61,11.83.01,23.66.08,35.49-.01,8.95-.07,16.56-3.49,22.83-9.84,4.6-4.67,7.46-10.29,8.58-16.75,1.45-8.4-.34-16.13-5.16-23.12-4.76-6.9-11.18-11.55-19.34-13.7-2.49-.66-5.03-.91-7.61-.91-11.58.01-23.17,0-34.75.02-.51,0-.63-.11-.63-.63.03-3.43.02-6.85,0-10.28,0-.35.07-.48.45-.48,11.88.01,23.76-.05,35.65.03,9.1.06,17.29,3.04,24.59,8.39,8.16,5.99,13.88,13.78,16.88,23.49,1.56,5.06,2.05,10.24,1.57,15.51Z"/>
        </g>
        <g>
          <path class="cls-2" d="M300.79,95.2c0-13.2.03-26.39-.04-39.59,0-1.84.47-2.52,2.4-2.47,4.54.13,9.09.04,13.63.04,2.46,0,2.5.03,2.5,2.51,0,25.27.02,50.54-.01,75.81,0,4.28,1.34,7.78,5.01,10.22,4.86,3.22,12.97,2.77,17.34-1.04,2.73-2.38,3.64-5.53,3.64-9.05,0-13.76-.01-27.51,0-41.27,0-7.67,1.49-14.98,5.72-21.52,4.75-7.34,11.6-11.95,19.87-14.31,13.92-3.99,27.81-4,41.26,1.84,12.33,5.36,18.84,15.16,20.38,28.41.61,5.28.32,10.57.34,15.86.04,11.02.13,22.04-.06,33.05-.13,7.59-2.51,14.45-8.11,19.87-4.66,4.5-10.39,6.64-16.73,7.44-4.51.57-8.92.22-13.3-.91-10.53-2.71-18.03-11.15-19.51-21.91-.33-2.42-.37-4.83-.37-7.26,0-8.34-.05-16.68.04-25.02.05-4.93,1.49-9.43,4.75-13.24,3.37-3.94,7.73-5.98,12.78-6.59,6.32-.76,12.68-.22,19.02-.35,2.44-.05,2.51-.09,1.82-2.42-1.72-5.82-5.68-9.73-11.21-11.66-10.18-3.56-20.33-3.53-29.85,2.16-4.86,2.91-7.62,7.49-7.95,13.22-.87,14.92-.2,29.86-.36,44.79-.05,4.79-.7,9.43-2.73,13.8-3.39,7.33-9.31,11.78-16.86,13.97-9.42,2.73-18.79,2.47-27.89-1.56-8.71-3.85-13.46-10.69-15.11-19.9-.39-2.16-.41-4.33-.41-6.51,0-12.14,0-24.27,0-36.41ZM414.35,119.64c0-5.68-.04-10.35.02-15.01.02-1.4-.36-2.04-1.88-2.01-4.73.08-9.46,0-14.19.07-3.29.06-5,1.68-5.02,4.96-.07,8.71-.11,17.42.03,26.13.09,5.44,4.18,9.56,9.34,9.83,6.39.33,10.55-2.83,11.37-8.76.75-5.39.1-10.81.32-15.2Z"/>
          <path class="cls-2" d="M684.17,160.16c-13.69,0-27.38,0-41.07,0-2.69,0-2.72-.02-2.72-2.69,0-22.21-.02-44.43.01-66.64.01-8.37,1.63-16.31,6.65-23.28,5.08-7.04,12.1-11.26,20.29-13.42,12.22-3.22,24.5-3.3,36.55.91,13.88,4.85,21.79,14.68,23.71,29.29.3,2.29.37,4.59.37,6.89,0,22.03,0,44.06,0,66.08q0,2.85-2.92,2.86c-13.63,0-27.25,0-40.88,0ZM709.46,113.82c-.29-7.5.41-16.96-.32-26.4-.6-7.63-4.66-12.82-11.52-15.6-8.37-3.39-17.03-3.38-25.56-.48-6.18,2.1-10.53,6.21-12.38,12.67-.4,1.38-.02,1.74,1.34,1.73,4.29-.06,8.59-.1,12.88,0,6.37.15,12.14,1.84,16.54,6.84,3.95,4.49,4.93,9.94,4.97,15.63.07,10.89.06,21.78-.02,32.66-.01,1.91.59,2.49,2.46,2.41,3.11-.14,6.22-.13,9.33,0,1.8.07,2.35-.52,2.33-2.32-.08-8.4-.04-16.8-.04-27.15ZM658.88,122.83c0,5.97,0,11.93,0,17.9,0,2.51,0,2.52,2.42,2.52,4.41,0,8.83-.09,13.24.04,1.89.05,2.44-.52,2.42-2.42-.09-10.32-.03-20.64-.05-30.96,0-.99-.11-1.98-.26-2.96-.46-3.01-1.77-4.2-4.85-4.27-3.6-.08-7.21.02-10.81-.08-1.62-.05-2.17.49-2.15,2.13.08,6.03.03,12.06.03,18.09Z"/>
          <path class="cls-2" d="M919.96,118.36c0,13.01,0,26.02,0,39.04q0,2.76-2.83,2.76c-4.42,0-8.84-.07-13.26.03-1.88.05-2.45-.59-2.44-2.47.05-25.34.03-50.68.05-76.02,0-4.26-1.29-7.81-5.01-10.23-4.71-3.07-12.71-2.77-17.11.71-2.37,1.87-3.67,4.38-3.81,7.4-.11,2.24-.06,4.48-.06,6.72,0,23.66,0,47.32,0,70.97q0,2.87-2.92,2.88c-4.36,0-8.72,0-13.07,0-2.45,0-2.5-.06-2.5-2.52,0-25.03,0-50.05-.01-75.08,0-3.61-.49-7.05-3.33-9.76-5.06-4.83-15.4-4.56-20.09.61-1.51,1.67-2.37,3.64-2.5,5.9-.07,1.18-.08,2.36-.08,3.55,0,24.65,0,49.31,0,73.96q0,3.34-3.25,3.34c-4.23,0-8.47,0-12.7,0-2.64,0-2.74-.1-2.74-2.72,0-23.16,0-46.32,0-69.48,0-4.85-.2-9.73.82-14.51,2.2-10.29,8.62-16.82,18.53-19.77,7.7-2.29,15.53-2.73,23.26.22,4.06,1.55,7.44,4.01,10.07,7.46.8,1.05,1.25,1.26,2.18.08,4.78-6.02,11.17-8.91,18.75-9.39,6.24-.39,12.25.44,18.05,2.87,9.26,3.88,14.13,11,15.65,20.7.47,3.03.37,6.08.37,9.13,0,11.21,0,22.41,0,33.62Z"/>
          <path class="cls-2" d="M516.69,119.05c0-12.01.06-24.03-.01-36.04-.09-14.96,7.88-24.16,21.18-28.24,5.25-1.61,10.68-2.35,16.16-2.67,8.05-.47,16.03-.05,23.88,1.89,7.92,1.96,14.66,5.61,18.3,13.39,2.42,5.16,2.72,10.68,2.36,16.26-.15,2.29-.41,4.58-1.04,6.81-2.01,7.14-7.34,11.33-14.78,11.91-5.35.42-10.7.17-16.04.28-3.64.08-4.6,1.05-4.64,4.72-.06,5.06.81,5.93,5.96,5.95,5.35.02,10.71.02,16.06.01,2.58,0,5.08.43,7.51,1.28,4.99,1.75,8.09,5.35,9.37,10.35,1.96,7.65,1.98,15.42.08,23.07-1.77,7.13-7.05,11.35-14.37,11.8-12.31.76-24.64.15-36.95.34-1.53.02-1.89-.78-1.88-2.1.03-4.23.06-8.47-.02-12.7-.03-1.63.6-2.15,2.2-2.14,9.21.05,18.42.03,27.64.02.87,0,1.75.02,2.61-.06,2.09-.2,3.21-1.25,3.32-3.34.11-2.17.09-4.36,0-6.53-.07-1.68-.98-2.8-2.73-3.03-.98-.13-1.97-.28-2.96-.28-5.35-.03-10.71-.03-16.06-.02-2.58,0-5.08-.44-7.51-1.26-6.03-2.02-9-6.62-10.13-12.55-1.12-5.85-1.13-11.77.24-17.59,1.78-7.58,6.79-11.76,14.55-12.57,5.41-.56,10.82-.19,16.23-.31,3.57-.08,4.51-.89,4.92-4.4.61-5.31-1.35-8.4-6.37-10.18-2.55-.9-5.19-1.41-7.85-1.54-6.9-.34-13.8-.51-20.57,1.38-7.01,1.96-10.14,5.95-10.14,13.24,0,24.34,0,48.67,0,73.01q0,2.93-2.86,2.94c-4.42,0-8.84-.08-13.26.04-1.91.05-2.43-.64-2.42-2.49.07-12.88.04-25.77.04-38.65h0Z"/>
          <path class="cls-2" d="M138.74,106.43c0-8.53-.05-17.06.02-25.58.05-5.81,1.09-11.4,4.44-16.33,4.28-6.3,10.55-9.52,17.75-11.11,8.72-1.93,17.52-2.18,26.27-.21,6.93,1.56,13.06,4.52,16.77,11.06,1.72,3.04,2.48,6.35,2.69,9.81.31,5.29.41,10.58-.87,15.77-1.63,6.59-6.65,10.76-13.39,11.39-6.46.6-12.93.2-19.4.3-4.54.07-9.09.07-13.63-.02-1.58-.03-2.28.4-2.17,2.1.13,1.92.12,3.86,0,5.78-.1,1.65.49,2.15,2.13,2.13,9.52-.06,19.05-.02,28.57-.04,1.94,0,3.86.15,5.75.51,7.05,1.35,11.2,5.51,12.47,12.6,1.01,5.61,1.07,11.29.27,16.92-1.22,8.56-6.42,13.99-14.32,16.85-9.43,3.42-19.13,3.3-28.9,1.67-6.21-1.04-11.9-3.23-16.57-7.55-5.79-5.35-7.74-12.33-7.83-19.91-.11-8.71-.03-17.43-.03-26.14ZM171.68,84.62s0-.01,0-.02c4.23,0,8.45.04,12.68-.02,2.61-.04,3.61-1.04,3.73-3.63.08-1.67,0-3.36.04-5.03.06-2.34-1.15-3.86-3.12-4.87-1.34-.69-2.78-1.06-4.27-1.25-4.09-.52-8.16-.52-12.26,0-7.81.99-11.3,4.95-11.29,12.77,0,1.71.63,2.1,2.19,2.07,4.1-.08,8.2-.03,12.3-.03ZM171.67,128.43s0,0,0-.01c-4.22,0-8.45,0-12.67,0-.72,0-1.49-.11-1.75.94-1.17,4.72,1.45,10.3,5.92,12.31,5.05,2.27,10.39,2.15,15.74,1.77,1.92-.14,3.83-.41,5.61-1.22,2.29-1.04,3.71-2.64,3.6-5.32-.05-1.43.02-2.86-.02-4.29-.08-3.17-.99-4.13-4.15-4.17-4.1-.05-8.2-.01-12.3-.01Z"/>
          <path class="cls-2" d="M281.59,105.36c.19.12.38.29.59.37,6.93,2.77,9.71,8.33,10.24,15.35.53,6.96.55,13.93-.41,20.85-.79,5.72-2.93,10.83-7.86,14.29-3.07,2.16-6.6,3.24-10.3,3.56-8.76.76-17.54.22-26.31.38-1.38.02-1.89-.59-1.88-1.91.02-4.36.03-8.71,0-13.07,0-1.43.59-1.97,2.02-1.96,5.35.05,10.71.02,16.06.01,1.12,0,2.24.02,3.36-.06,4.52-.32,6.79-2.65,6.85-7.16.07-4.6.07-9.21,0-13.82-.07-4.67-2.48-7.08-7.21-7.15-6.22-.1-12.45-.04-18.67-.06-2.48,0-2.53-.06-2.54-2.49,0-4.11.06-8.22-.03-12.32-.03-1.65.59-2.17,2.19-2.15,4.98.06,9.96,0,14.94.01,1.4,0,2.71-.3,4-.8,1.75-.68,3.06-1.95,3.37-3.73.84-4.87,1.01-9.8-.18-14.63-.93-3.77-3.6-6.29-7.13-7.61-7.42-2.77-14.87-2.83-22.09.7-4.07,1.99-6.18,5.48-6.43,10-.12,2.05-.07,4.11-.07,6.16,0,23.03,0,46.06,0,69.09q0,2.93-2.85,2.94c-4.23,0-8.47,0-12.7,0q-3.13,0-3.13-3.08c0-18.74-.03-37.47.01-56.21.01-6.41-.06-12.81.17-19.23.49-13.7,7.94-23.71,21.1-27.54,10.77-3.13,21.62-3.06,32.35.32,12.23,3.86,19.48,13.78,19.96,27.07.15,4.23.19,8.47-.37,12.67-.56,4.17-2.32,7.72-5.91,10.17-.39.27-.94.37-1.11,1Z"/>
          <path class="cls-2" d="M801.56,106.53c0,9.46.23,18.93-.07,28.39-.31,9.68-4.48,17.42-13.19,22.17-6.63,3.61-13.86,4.65-21.33,4.1-4.36-.32-8.58-1.22-12.64-2.98-9.05-3.93-14.04-10.95-15.29-20.53-1.07-8.16-.25-16.41-.43-24.62-.02-1.12.54-1.55,1.61-1.55,5.1.01,10.21.02,15.31,0,1.42,0,1.59.82,1.58,1.95-.02,5.85-.01,11.7,0,17.56,0,6.21,2.16,9.81,7.02,11.77,5.56,2.24,12.39,1.11,16.05-2.66,1.81-1.86,2.86-4.09,2.87-6.7.03-17.8.05-35.61,0-53.41-.01-4.17-2.11-7.26-5.84-9.06-4.65-2.24-9.44-2.21-14.07-.01-4.28,2.03-5.98,5.79-6.01,10.38-.03,5.98-.07,11.95.02,17.93.03,1.82-.61,2.37-2.38,2.34-4.67-.09-9.34-.08-14.01,0-1.6.02-2.2-.51-2.18-2.16.08-6.79-.16-13.58.11-20.36.39-9.74,4.18-17.77,12.99-22.73,4.61-2.59,9.64-3.92,14.95-4.26,6.68-.42,13.14.28,19.34,2.96,8.68,3.75,13.51,10.44,15.2,19.59.44,2.4.42,4.83.42,7.26,0,8.22,0,16.44,0,24.65-.01,0-.02,0-.04,0Z"/>
          <path class="cls-2" d="M506.07,106.52c0,9.33.2,18.68-.06,28-.24,8.88-3.71,16.31-11.3,21.39-3.56,2.39-7.54,3.82-11.74,4.59-8.85,1.63-17.5,1-25.67-2.99-7.92-3.87-12.47-10.45-13.68-19.05-1.19-8.46-.3-17.02-.48-25.54-.02-1.06.56-1.42,1.52-1.42,5.1,0,10.21.02,15.31-.01,1.53-.01,1.67.89,1.66,2.07-.02,5.54.31,11.1-.07,16.61-.81,11.82,9.1,15.04,17.04,13.22,5.78-1.33,8.98-5.28,8.99-11.2.03-16.99.03-33.98,0-50.97-.01-6.64-4-11.05-10.61-11.72-2.92-.3-5.84-.19-8.62,1.02-4.33,1.88-6.61,5.2-6.69,9.88-.11,6.22-.09,12.45,0,18.67.03,1.84-.49,2.55-2.42,2.5-4.66-.11-9.33-.09-14-.01-1.63.03-2.16-.56-2.14-2.18.07-6.91-.04-13.82.07-20.72.2-12.7,8.72-22.79,21.12-25.53,7.12-1.57,14.19-1.69,21.22.16,11.12,2.92,18.58,10.34,20.25,22.25.29,2.05.35,4.09.35,6.14,0,8.28,0,16.55,0,24.83,0,0-.02,0-.03,0Z"/>
          <path class="cls-2" d="M610.92,98.38c0-19.23-.14-38.47.08-57.7.07-6.45-4.26-9.35-10.17-8.64-5.78.7-7.71,2.98-7.72,8.85,0,2.55-.04,5.11.01,7.66.03,1.38-.55,1.86-1.89,1.85-4.92-.04-9.84-.01-14.75-.02-.89,0-1.86.01-1.84-1.27.12-5.4-.55-10.83.65-16.19,2.08-9.28,8.1-14.77,17.01-17.2,7.97-2.18,15.91-1.93,23.55,1.46,8.33,3.7,12.65,10.33,13.5,19.3.33,3.53.27,7.08.27,10.63,0,36.29,0,72.58,0,108.87,0,.68-.05,1.37,0,2.05.12,1.64-.65,2.17-2.23,2.15-4.67-.06-9.34-.01-14.01-.02-2.39,0-2.46-.08-2.46-2.58,0-19.73,0-39.47,0-59.2Z"/>
          <path class="cls-2" d="M951,97.47c0,19.98,0,39.97,0,59.95,0,2.72,0,2.73-2.65,2.74-4.42,0-8.84,0-13.26,0-2.53,0-2.58-.06-2.58-2.65,0-38.53,0-77.07,0-115.6,0-1,.01-1.99-.03-2.99-.16-3.43-2.54-6.13-5.92-6.74-1.97-.35-3.96-.33-5.93,0-3.36.58-5.8,3.32-5.89,6.73-.08,3.17-.08,6.35-.03,9.52.02,1.45-.55,1.98-1.99,1.96-4.86-.05-9.71-.01-14.57-.03-.85,0-1.93.12-1.91-1.18.1-5.46-.58-10.97.62-16.38,1.95-8.81,7.66-14.27,16.03-16.84,8.07-2.48,16.22-2.31,24.11,1.01,7.65,3.22,12.14,9.02,13.62,17.19.38,2.1.39,4.21.39,6.32,0,18.99,0,37.97,0,56.96Z"/>
        </g>
      </g>
    </g>
  </g>
</svg>